<svg width="1203" height="590" xmlns="http://www.w3.org/2000/svg" xmlns:xlink="http://www.w3.org/1999/xlink" overflow="hidden"><defs><clipPath id="clip0"><rect x="27" y="99" width="1203" height="590"/></clipPath></defs><g clip-path="url(#clip0)" transform="translate(-27 -99)"><rect x="33" y="254" width="1186" height="67" fill="#5B9BD5" fill-opacity="0.14902"/><rect x="33" y="328" width="1186" height="113" fill="#FFE699" fill-opacity="0.14902"/><rect x="33" y="447" width="1186" height="113" fill="#A9D18E" fill-opacity="0.14902"/><rect x="33" y="564" width="1186" height="114" fill="#A5A5A5" fill-opacity="0.14902"/><path d="M118.5 280.5 118.5 684.91" stroke="#FF0000" stroke-miterlimit="8" stroke-opacity="0.498039" fill="none" fill-rule="evenodd"/><path d="M665.5 281.5 665.5 685.91" stroke="#FF0000" stroke-miterlimit="8" stroke-opacity="0.498039" fill="none" fill-rule="evenodd"/><path d="M1209.5 281.5 1209.5 685.91" stroke="#FF0000" stroke-miterlimit="8" stroke-opacity="0.498039" fill="none" fill-rule="evenodd"/><path d="M115 210.5C115 208.015 117.015 206 119.5 206L1214.5 206C1216.99 206 1219 208.015 1219 210.5L1219 228.5C1219 230.985 1216.99 233 1214.5 233L119.5 233C117.015 233 115 230.985 115 228.5Z" fill="#44546A" fill-rule="evenodd"/><rect x="33" y="254" width="70" height="67" fill="#5B9BD5" fill-opacity="0.498039"/><rect x="33" y="329" width="70" height="113" fill="#FFC000" fill-opacity="0.498039"/><rect x="33" y="447" width="70" height="113" fill="#70AD47" fill-opacity="0.498039"/><rect x="33" y="564" width="70" height="114" fill="#A5A5A5" fill-opacity="0.498039"/><path d="M209.5 233.5 209.5 687.043" stroke="#5B9BD5" stroke-miterlimit="8" stroke-opacity="0.14902" fill="none" fill-rule="evenodd"/><path d="M294.5 233.5 294.5 687.043" stroke="#5B9BD5" stroke-miterlimit="8" stroke-opacity="0.14902" fill="none" fill-rule="evenodd"/><path d="M387.5 233.5 387.5 687.043" stroke="#5B9BD5" stroke-miterlimit="8" stroke-opacity="0.14902" fill="none" fill-rule="evenodd"/><path d="M478.5 233.5 478.5 687.043" stroke="#5B9BD5" stroke-miterlimit="8" stroke-opacity="0.14902" fill="none" fill-rule="evenodd"/><path d="M572.5 233.5 572.5 687.043" stroke="#5B9BD5" stroke-miterlimit="8" stroke-opacity="0.14902" fill="none" fill-rule="evenodd"/><path d="M665.5 234.5 665.5 688.043" stroke="#5B9BD5" stroke-miterlimit="8" stroke-opacity="0.14902" fill="none" fill-rule="evenodd"/><path d="M756.5 233.5 756.5 687.043" stroke="#5B9BD5" stroke-miterlimit="8" stroke-opacity="0.14902" fill="none" fill-rule="evenodd"/><path d="M849.5 233.5 849.5 687.043" stroke="#5B9BD5" stroke-miterlimit="8" stroke-opacity="0.14902" fill="none" fill-rule="evenodd"/><path d="M940.5 233.5 940.5 687.043" stroke="#5B9BD5" stroke-miterlimit="8" stroke-opacity="0.14902" fill="none" fill-rule="evenodd"/><path d="M1034.5 233.5 1034.5 687.043" stroke="#5B9BD5" stroke-miterlimit="8" stroke-opacity="0.14902" fill="none" fill-rule="evenodd"/><path d="M1124.5 233.5 1124.5 687.043" stroke="#5B9BD5" stroke-miterlimit="8" stroke-opacity="0.14902" fill="none" fill-rule="evenodd"/><text font-family="Franklin Gothic Medium,Franklin Gothic Medium_MSFontService,sans-serif" font-weight="400" font-size="13" transform="translate(50.1666 293)">Jalons</text><text font-family="Franklin Gothic Medium,Franklin Gothic Medium_MSFontService,sans-serif" font-weight="400" font-size="13" transform="translate(37.6667 389)">Infra</text><text font-family="Franklin Gothic Medium,Franklin Gothic Medium_MSFontService,sans-serif" font-weight="400" font-size="13" transform="translate(67.5 389)">clou</text><text font-family="Franklin Gothic Medium,Franklin Gothic Medium_MSFontService,sans-serif" font-weight="400" font-size="13" transform="translate(91.1667 389)">d</text><text font-family="Franklin Gothic Medium,Franklin Gothic Medium_MSFontService,sans-serif" font-weight="400" font-size="13" transform="translate(35.2428 508)">Application</text><text font-family="Franklin Gothic Medium,Franklin Gothic Medium_MSFontService,sans-serif" font-weight="400" font-size="13" transform="translate(55.5762 524)">we</text><text font-family="Franklin Gothic Medium,Franklin Gothic Medium_MSFontService,sans-serif" font-weight="400" font-size="13" transform="translate(71.9095 524)">b</text><text font-family="Franklin Gothic Medium,Franklin Gothic Medium_MSFontService,sans-serif" font-weight="400" font-size="13" transform="translate(39.8703 624)">Systèmes</text><text font-family="Franklin Gothic Medium,Franklin Gothic Medium_MSFontService,sans-serif" font-weight="400" font-size="13" transform="translate(35.2037 640)">embarqués</text><text fill="#FFFFFF" font-family="Calibri,Calibri_MSFontService,sans-serif" font-weight="400" font-size="16" transform="translate(121.991 225)">Avr</text><text fill="#FFFFFF" font-family="Calibri,Calibri_MSFontService,sans-serif" font-weight="400" font-size="16" transform="translate(215.644 225)">Mai</text><text fill="#FFFFFF" font-family="Calibri,Calibri_MSFontService,sans-serif" font-weight="400" font-size="16" transform="translate(300.233 225)">Jun</text><text fill="#FFFFFF" font-family="Calibri,Calibri_MSFontService,sans-serif" font-weight="400" font-size="16" transform="translate(393.886 225)">Juil</text><text fill="#FFFFFF" font-family="Calibri,Calibri_MSFontService,sans-serif" font-weight="400" font-size="16" transform="translate(484.517 225)">Aout</text><text fill="#FFFFFF" font-family="Calibri,Calibri_MSFontService,sans-serif" font-weight="400" font-size="16" transform="translate(578.17 225)">Sept</text><text fill="#FFFFFF" font-family="Calibri,Calibri_MSFontService,sans-serif" font-weight="400" font-size="16" transform="translate(668.802 225)">Oct</text><text fill="#FFFFFF" font-family="Calibri,Calibri_MSFontService,sans-serif" font-weight="400" font-size="16" transform="translate(762.454 225)">Nov</text><text fill="#FFFFFF" font-family="Calibri,Calibri_MSFontService,sans-serif" font-weight="400" font-size="16" transform="translate(856.107 225)">Dec</text><text fill="#FFFFFF" font-family="Calibri,Calibri_MSFontService,sans-serif" font-weight="400" font-size="16" transform="translate(946.739 225)">Jan</text><text fill="#FFFFFF" font-family="Calibri,Calibri_MSFontService,sans-serif" font-weight="400" font-size="16" transform="translate(1040.39 225)">Fev</text><text fill="#FFFFFF" font-family="Calibri,Calibri_MSFontService,sans-serif" font-weight="400" font-size="16" transform="translate(1131.02 225)">Mars</text><text fill="#44546A" font-family="Calibri,Calibri_MSFontService,sans-serif" font-weight="400" font-size="16" transform="translate(78.1405 224)">2023</text><path d="M120 283.25C125.667 275.75 131.333 290.75 137 283.25L137 296.75C131.333 304.25 125.667 289.25 120 296.75Z" fill="#5B9BD5" fill-rule="evenodd"/><path d="M668 283.25C674 275.75 680 290.75 686 283.25L686 296.75C680 304.25 674 289.25 668 296.75Z" fill="#5B9BD5" fill-rule="evenodd"/><path d="M1212 283.125C1217.67 276.042 1223.33 290.208 1229 283.125L1229 295.875C1223.33 302.958 1217.67 288.792 1212 295.875Z" fill="#5B9BD5" fill-rule="evenodd"/><text font-family="Calibri,Calibri_MSFontService,sans-serif" font-weight="700" font-size="15" transform="translate(145.871 286)">Kickoff</text><text font-family="Calibri,Calibri_MSFontService,sans-serif" font-weight="700" font-size="15" transform="translate(190.351 286)">projet</text><text fill="#44546A" font-family="Calibri,Calibri_MSFontService,sans-serif" font-weight="400" font-size="13" transform="translate(145.871 311)">7</text><text fill="#44546A" font-family="Calibri,Calibri_MSFontService,sans-serif" font-weight="400" font-size="13" transform="translate(155.544 311)">avr</text><text font-family="Calibri,Calibri_MSFontService,sans-serif" font-weight="700" font-size="15" transform="translate(689.669 268)">Prototype &amp;</text><text font-family="Calibri,Calibri_MSFontService,sans-serif" font-weight="700" font-size="15" transform="translate(689.669 285)">feedback</text><text fill="#44546A" font-family="Calibri,Calibri_MSFontService,sans-serif" font-weight="400" font-size="13" transform="translate(689.017 303)">1 oct</text><text font-family="Calibri,Calibri_MSFontService,sans-serif" font-weight="700" font-size="15" transform="translate(1125.33 290)">Final Release</text><text font-family="Calibri,Calibri_MSFontService,sans-serif" font-weight="400" font-size="13" transform="translate(1168.72 314)">1</text><text font-family="Calibri,Calibri_MSFontService,sans-serif" font-weight="400" font-size="13" transform="translate(1178.39 314)">avr</text><text font-family="Segoe UI,Segoe UI_MSFontService,sans-serif" font-weight="400" font-size="43" transform="translate(512.94 155)">Project</text><text font-family="Segoe UI,Segoe UI_MSFontService,sans-serif" font-weight="400" font-size="43" transform="translate(654.547 155)">roadmap</text><text fill="#44546A" font-family="Calibri,Calibri_MSFontService,sans-serif" font-weight="400" font-size="16" transform="translate(944.298 202)">2024</text><path d="M208 581 360 581 369 590 360 599 208 599Z" fill="#BFBFBF" fill-rule="evenodd"/><text font-family="Calibri,Calibri_MSFontService,sans-serif" font-weight="400" font-size="16" transform="translate(234.704 595)">Conception PCB</text><path d="M209 348 326 348 335 357 326 366 209 366Z" fill="#FFC000" fill-rule="evenodd"/><text font-family="Calibri,Calibri_MSFontService,sans-serif" font-weight="400" font-size="16" transform="translate(230.599 362)">Exoscale</text><text font-family="Calibri,Calibri_MSFontService,sans-serif" font-weight="400" font-size="16" transform="translate(289.539 362)">DB</text><path d="M294 642 502 642 511 651 502 660 294 660Z" fill="#BFBFBF" fill-rule="evenodd"/><text font-family="Calibri,Calibri_MSFontService,sans-serif" font-weight="400" font-size="16" transform="translate(333.239 656)">Dev.</text><text font-family="Calibri,Calibri_MSFontService,sans-serif" font-weight="400" font-size="16" transform="translate(364.512 656)">L</text><text font-family="Calibri,Calibri_MSFontService,sans-serif" font-weight="400" font-size="16" transform="translate(371.179 656)">ogiciel</text><text font-family="Calibri,Calibri_MSFontService,sans-serif" font-weight="400" font-size="16" transform="translate(416.679 656)">Module</text><path d="M118 485 188.5 485 209 505.5 188.5 526 118 526Z" fill="#70AD47" fill-rule="evenodd"/><text font-family="Calibri,Calibri_MSFontService,sans-serif" font-weight="400" font-size="16" transform="translate(139.729 501)">Archi.</text><text font-family="Calibri,Calibri_MSFontService,sans-serif" font-weight="400" font-size="16" transform="translate(128.675 520)">systèmes</text><path d="M209 466 468.5 466 478 475.5 468.5 485 209 485Z" fill="#70AD47" fill-rule="evenodd"/><text font-family="Calibri,Calibri_MSFontService,sans-serif" font-weight="400" font-size="16" transform="translate(278.756 481)">Prototype frontend</text><path d="M987.5 281.5 987.5 685.91" stroke="#FF0000" stroke-miterlimit="8" stroke-opacity="0.498039" fill="none" fill-rule="evenodd"/><path d="M990 283.25C995.667 275.75 1001.33 290.75 1007 283.25L1007 296.75C1001.33 304.25 995.667 289.25 990 296.75Z" fill="#5B9BD5" fill-rule="evenodd"/><text font-family="Calibri,Calibri_MSFontService,sans-serif" font-weight="700" font-size="15" transform="translate(1010.35 270)">Beta release &amp;</text><text font-family="Calibri,Calibri_MSFontService,sans-serif" font-weight="700" font-size="15" transform="translate(1010.35 287)">validation</text><text fill="#44546A" font-family="Calibri,Calibri_MSFontService,sans-serif" font-weight="400" font-size="13" transform="translate(1010.35 303)">15</text><text fill="#44546A" font-family="Calibri,Calibri_MSFontService,sans-serif" font-weight="400" font-size="13" transform="translate(1026.78 303)">jan</text><path d="M294 611 405 611 414 620 405 629 294 629Z" fill="#BFBFBF" fill-rule="evenodd"/><text font-family="Calibri,Calibri_MSFontService,sans-serif" font-weight="400" font-size="16" transform="translate(305.756 625)">Com. matériel</text><path d="M387 581 502 581 511 590 502 599 387 599Z" fill="#BFBFBF" fill-rule="evenodd"/><text font-family="Calibri,Calibri_MSFontService,sans-serif" font-weight="400" font-size="16" transform="translate(408.189 595)">Assemblage</text><path d="M209 527 469.5 527 478 535.5 469.5 544 209 544Z" fill="#70AD47" fill-rule="evenodd"/><text font-family="Calibri,Calibri_MSFontService,sans-serif" font-weight="400" font-size="16" transform="translate(280.014 541)">Prototype backend</text><path d="M209 407 326 407 335 416 326 425 209 425Z" fill="#FFC000" fill-rule="evenodd"/><text font-family="Calibri,Calibri_MSFontService,sans-serif" font-weight="400" font-size="16" transform="translate(220.28 421)">Serv.</text><text font-family="Calibri,Calibri_MSFontService,sans-serif" font-weight="400" font-size="16" transform="translate(254.78 421)">I</text><text font-family="Calibri,Calibri_MSFontService,sans-serif" font-weight="400" font-size="16" transform="translate(258.78 421)">nterméd</text><text font-family="Calibri,Calibri_MSFontService,sans-serif" font-weight="400" font-size="16" transform="translate(314.793 421)">.</text><path d="M335 348 468.5 348 477 356.5 468.5 365 335 365Z" fill="#FFC000" fill-rule="evenodd"/><text font-family="Calibri,Calibri_MSFontService,sans-serif" font-weight="400" font-size="16" transform="translate(389.817 362)">APIs</text><path d="M665 467 840.5 467 849 475.5 840.5 484 665 484Z" fill="#70AD47" fill-rule="evenodd"/><text font-family="Calibri,Calibri_MSFontService,sans-serif" font-weight="400" font-size="16" transform="translate(696.98 481)">F</text><text font-family="Calibri,Calibri_MSFontService,sans-serif" font-weight="400" font-size="16" transform="translate(704.08 481)">eatures</text><text font-family="Calibri,Calibri_MSFontService,sans-serif" font-weight="400" font-size="16" transform="translate(756.554 481)">frontend</text><path d="M665 527 841.5 527 850 535.5 841.5 544 665 544Z" fill="#70AD47" fill-rule="evenodd"/><text font-family="Calibri,Calibri_MSFontService,sans-serif" font-weight="400" font-size="16" transform="translate(698.038 541)">F</text><text font-family="Calibri,Calibri_MSFontService,sans-serif" font-weight="400" font-size="16" transform="translate(705.138 541)">eatures</text><text font-family="Calibri,Calibri_MSFontService,sans-serif" font-weight="400" font-size="16" transform="translate(757.611 541)">Backend</text><path d="M850 486 965.5 486 986 506.5 965.5 527 850 527Z" fill="#70AD47" fill-rule="evenodd"/><text font-family="Calibri,Calibri_MSFontService,sans-serif" font-weight="400" font-size="16" transform="translate(880.5 512)">Validation</text><path d="M118 599 188 599 209 620 188 641 118 641Z" fill="#BFBFBF" fill-rule="evenodd"/><text font-family="Calibri,Calibri_MSFontService,sans-serif" font-weight="400" font-size="16" transform="translate(139.801 616)">Archi.</text><text font-family="Calibri,Calibri_MSFontService,sans-serif" font-weight="400" font-size="16" transform="translate(128.747 635)">systèmes</text><path d="M118 365 188 365 209 386 188 407 118 407Z" fill="#FFC000" fill-rule="evenodd"/><text font-family="Calibri,Calibri_MSFontService,sans-serif" font-weight="400" font-size="16" transform="translate(139.801 382)">Archi.</text><text font-family="Calibri,Calibri_MSFontService,sans-serif" font-weight="400" font-size="16" transform="translate(128.747 401)">systèmes</text><path d="M665 612 841 612 850 621 841 630 665 630Z" fill="#BFBFBF" fill-rule="evenodd"/><text font-family="Calibri,Calibri_MSFontService,sans-serif" font-weight="400" font-size="16" transform="translate(700.306 627)">Features module</text><path d="M850 612 977 612 986 621 977 630 850 630Z" fill="#BFBFBF" fill-rule="evenodd"/><text font-family="Calibri,Calibri_MSFontService,sans-serif" font-weight="400" font-size="16" transform="translate(883.816 627)">Validation</text><path d="M665 407 841 407 850 416 841 425 665 425Z" fill="#FFC000" fill-rule="evenodd"/><text font-family="Calibri,Calibri_MSFontService,sans-serif" font-weight="400" font-size="16" transform="translate(694.403 421)">Backup integration</text><path d="M666 348 841 348 850 357 841 366 666 366Z" fill="#FFC000" fill-rule="evenodd"/><text font-family="Calibri,Calibri_MSFontService,sans-serif" font-weight="400" font-size="16" transform="translate(680.579 362)">Feat DB &amp; serv.</text><text font-family="Calibri,Calibri_MSFontService,sans-serif" font-weight="400" font-size="16" transform="translate(782.366 362)">I</text><text font-family="Calibri,Calibri_MSFontService,sans-serif" font-weight="400" font-size="16" transform="translate(786.366 362)">nterm</text><text font-family="Calibri,Calibri_MSFontService,sans-serif" font-weight="400" font-size="16" transform="translate(826.046 362)">.</text><path d="M850 365 965 365 986 386 965 407 850 407Z" fill="#FFC000" fill-rule="evenodd"/><text font-family="Calibri,Calibri_MSFontService,sans-serif" font-weight="400" font-size="16" transform="translate(876.975 391)">Intégration</text><path d="M335 407 468 407 477 416 468 425 335 425Z" fill="#FFC000" fill-rule="evenodd"/><text font-family="Calibri,Calibri_MSFontService,sans-serif" font-weight="400" font-size="16" transform="translate(358.435 421)">Load balancer</text><path d="M987 485 1188.5 485 1209 505.5 1188.5 526 987 526Z" fill="#70AD47" fill-rule="evenodd"/><text font-family="Calibri,Calibri_MSFontService,sans-serif" font-weight="400" font-size="16" transform="translate(1017.53 511)">Intégration</text><text font-family="Calibri,Calibri_MSFontService,sans-serif" font-weight="400" font-size="16" transform="translate(1092.57 511)">+</text><text font-family="Calibri,Calibri_MSFontService,sans-serif" font-weight="400" font-size="16" transform="translate(1104.24 511)">v</text><text font-family="Calibri,Calibri_MSFontService,sans-serif" font-weight="400" font-size="16" transform="translate(1111.17 511)">alidation</text><path d="M987 599 1188 599 1209 620 1188 641 987 641Z" fill="#BFBFBF" fill-rule="evenodd"/><text font-family="Calibri,Calibri_MSFontService,sans-serif" font-weight="400" font-size="16" transform="translate(1007.11 625)">Validation</text><text font-family="Calibri,Calibri_MSFontService,sans-serif" font-weight="400" font-size="16" transform="translate(1075.57 625)">+ concept.</text><text font-family="Calibri,Calibri_MSFontService,sans-serif" font-weight="400" font-size="16" transform="translate(1146.87 625)">série</text><path d="M987 365 1188 365 1209 386 1188 407 987 407Z" fill="#FFC000" fill-rule="evenodd"/><text font-family="Calibri,Calibri_MSFontService,sans-serif" font-weight="400" font-size="16" transform="translate(1017.58 392)">Intégration</text><text font-family="Calibri,Calibri_MSFontService,sans-serif" font-weight="400" font-size="16" transform="translate(1092.62 392)">+ v</text><text font-family="Calibri,Calibri_MSFontService,sans-serif" font-weight="400" font-size="16" transform="translate(1111.22 392)">alidation</text><path d="M477 365 644.5 365 665 385.5 644.5 406 477 406Z" fill="#FFC000" fill-rule="evenodd"/><text font-family="Calibri,Calibri_MSFontService,sans-serif" font-weight="400" font-size="16" transform="translate(488.088 391)">Intégration</text><text font-family="Calibri,Calibri_MSFontService,sans-serif" font-weight="400" font-size="16" transform="translate(563.128 391)">et v</text><text font-family="Calibri,Calibri_MSFontService,sans-serif" font-weight="400" font-size="16" transform="translate(586.975 391)">alidation</text><path d="M478 485 645.5 485 666 505.5 645.5 526 478 526Z" fill="#70AD47" fill-rule="evenodd"/><text font-family="Calibri,Calibri_MSFontService,sans-serif" font-weight="400" font-size="16" transform="translate(491.417 511)">Intégration</text><text font-family="Calibri,Calibri_MSFontService,sans-serif" font-weight="400" font-size="16" transform="translate(566.457 511)">+ v</text><text font-family="Calibri,Calibri_MSFontService,sans-serif" font-weight="400" font-size="16" transform="translate(585.057 511)">alidation</text><path d="M511 600 643 600 664 621 643 642 511 642Z" fill="#BFBFBF" fill-rule="evenodd"/><text font-family="Calibri,Calibri_MSFontService,sans-serif" font-weight="400" font-size="16" transform="translate(550.239 627)">Validation</text></g></svg>